HIERARCHY
ROOT hip
{
  OFFSET 0 0 0
  CHANNELS 6 Xposition Yposition Zposition Zrotation Yrotation Xrotation
  JOINT abdomen
  {
    OFFSET 0 20.6881 -0.73152
    CHANNELS 3 Zrotation Xrotation Yrotation
    JOINT chest
    {
      OFFSET 0 11.7043 -0.48768
      CHANNELS 3 Zrotation Xrotation Yrotation
      JOINT neck
      {
        OFFSET 0 22.1894 -2.19456
        CHANNELS 3 Zrotation Xrotation Yrotation
        JOINT head
        {
          OFFSET -0.24384 7.07133 1.2192
          CHANNELS 3 Zrotation Xrotation Yrotation
          JOINT leftEye
          {
            OFFSET 4.14528 8.04674 8.04672
            CHANNELS 3 Zrotation Xrotation Yrotation
            End Site
            {
              OFFSET 1 0 0
            }
          }
          JOINT rightEye
          {
            OFFSET -3.6576 8.04674 8.04672
            CHANNELS 3 Zrotation Xrotation Yrotation
            End Site
            {
              OFFSET 1 0 0
            }
          }
        }
      }
      JOINT rCollar
      {
        OFFSET -2.68224 19.2634 -4.8768
        CHANNELS 3 Zrotation Xrotation Yrotation
        JOINT rShldr
        {
          OFFSET -8.77824 -1.95073 1.46304
          CHANNELS 3 Zrotation Xrotation Yrotation
          JOINT rForeArm
          {
            OFFSET -28.1742 -1.7115 0.48768
            CHANNELS 3 Zrotation Xrotation Yrotation
            JOINT rHand
            {
              OFFSET -22.5879 0.773209 7.07136
              CHANNELS 3 Zrotation Xrotation Yrotation
              JOINT rThumb1
              {
                OFFSET -1.2192 -0.487915 3.41376
                CHANNELS 3 Zrotation Xrotation Yrotation
                JOINT rThumb2
                {
                  OFFSET -3.37035 -0.52449 3.41376
                  CHANNELS 3 Zrotation Xrotation Yrotation
                  End Site
                  {
                    OFFSET -1.78271 -1.18214 1.43049
                  }
                }
              }
              JOINT rIndex1
              {
                OFFSET -7.75947 0.938293 5.60832
                CHANNELS 3 Zrotation Xrotation Yrotation
                JOINT rIndex2
                {
                  OFFSET -2.54057 -0.884171 1.56538
                  CHANNELS 3 Zrotation Xrotation Yrotation
                  End Site
                  {
                    OFFSET -1.62519 -0.234802 1.16502
                  }
                }
              }
              JOINT rMid1
              {
                OFFSET -8.24714 1.18213 3.41376
                CHANNELS 3 Zrotation Xrotation Yrotation
                JOINT rMid2
                {
                  OFFSET -3.10165 -0.590103 1.0647
                  CHANNELS 3 Zrotation Xrotation Yrotation
                  End Site
                  {
                    OFFSET -2.48547 -0.328903 0.83742
                  }
                }
              }
              JOINT rRing1
              {
                OFFSET -8.82822 0.546677 1.51678
                CHANNELS 3 Zrotation Xrotation Yrotation
                JOINT rRing2
                {
                  OFFSET -2.60934 -0.819778 -0.0198488
                  CHANNELS 3 Zrotation Xrotation Yrotation
                  End Site
                  {
                    OFFSET -2.33842 -0.294052 0.168128
                  }
                }
              }
              JOINT rPinky1
              {
                OFFSET -8.27202 -0.0477905 -0.4584
                CHANNELS 3 Zrotation Xrotation Yrotation
                JOINT rPinky2
                {
                  OFFSET -1.82734 -0.647385 -0.700984
                  CHANNELS 3 Zrotation Xrotation Yrotation
                  End Site
                  {
                    OFFSET -1.69225 -0.51767 -0.607171
                  }
                }
              }
            }
          }
        }
      }
      JOINT lCollar
      {
        OFFSET 2.68224 19.2634 -4.8768
        CHANNELS 3 Zrotation Xrotation Yrotation
        JOINT lShldr
        {
          OFFSET 8.77824 -1.95073 1.46304
          CHANNELS 3 Zrotation Xrotation Yrotation
          JOINT lForeArm
          {
            OFFSET 28.1742 -1.7115 0.48768
            CHANNELS 3 Zrotation Xrotation Yrotation
            JOINT lHand
            {
              OFFSET 22.5879 0.773209 7.07136
              CHANNELS 3 Zrotation Xrotation Yrotation
              JOINT lThumb1
              {
                OFFSET 1.2192 -0.487915 3.41376
                CHANNELS 3 Zrotation Xrotation Yrotation
                JOINT lThumb2
                {
                  OFFSET 3.37035 -0.52449 3.41376
                  CHANNELS 3 Zrotation Xrotation Yrotation
                  End Site
                  {
                    OFFSET 1.78271 -1.18214 1.43049
                  }
                }
              }
              JOINT lIndex1
              {
                OFFSET 7.75947 0.938293 5.60832
                CHANNELS 3 Zrotation Xrotation Yrotation
                JOINT lIndex2
                {
                  OFFSET 2.54057 -0.884171 1.56538
                  CHANNELS 3 Zrotation Xrotation Yrotation
                  End Site
                  {
                    OFFSET 1.62519 -0.234802 1.16502
                  }
                }
              }
              JOINT lMid1
              {
                OFFSET 8.24714 1.18213 3.41376
                CHANNELS 3 Zrotation Xrotation Yrotation
                JOINT lMid2
                {
                  OFFSET 3.10165 -0.590103 1.0647
                  CHANNELS 3 Zrotation Xrotation Yrotation
                  End Site
                  {
                    OFFSET 2.48547 -0.328903 0.83742
                  }
                }
              }
              JOINT lRing1
              {
                OFFSET 8.82822 0.546677 1.51678
                CHANNELS 3 Zrotation Xrotation Yrotation
                JOINT lRing2
                {
                  OFFSET 2.60934 -0.819778 -0.0198488
                  CHANNELS 3 Zrotation Xrotation Yrotation
                  End Site
                  {
                    OFFSET 2.33842 -0.294052 0.168128
                  }
                }
              }
              JOINT lPinky1
              {
                OFFSET 8.27202 -0.0477905 -0.4584
                CHANNELS 3 Zrotation Xrotation Yrotation
                JOINT lPinky2
                {
                  OFFSET 1.82734 -0.647385 -0.700984
                  CHANNELS 3 Zrotation Xrotation Yrotation
                  End Site
                  {
                    OFFSET 1.69225 -0.51767 -0.607171
                  }
                }
              }
            }
          }
        }
      }
    }
  }
  JOINT rButtock
  {
    OFFSET -8.77824 4.35084 1.2192
    CHANNELS 3 Zrotation Xrotation Yrotation
    JOINT rThigh
    {
      OFFSET 0 -1.70687 -2.19456
      CHANNELS 3 Zrotation Xrotation Yrotation
      JOINT rShin
      {
        OFFSET 0 -36.8199 0.73152
        CHANNELS 3 Zrotation Xrotation Yrotation
        JOINT rFoot
        {
          OFFSET 0.73152 -45.1104 -5.12064
          CHANNELS 3 Zrotation Xrotation Yrotation
          End Site
          {
            OFFSET -1.1221 -3.69964 12.103
          }
        }
      }
    }
  }
  JOINT lButtock
  {
    OFFSET 8.77824 4.35084 1.2192
    CHANNELS 3 Zrotation Xrotation Yrotation
    JOINT lThigh
    {
      OFFSET 0 -1.70687 -2.19456
      CHANNELS 3 Zrotation Xrotation Yrotation
      JOINT lShin
      {
        OFFSET 0 -36.8199 0.73152
        CHANNELS 3 Zrotation Xrotation Yrotation
        JOINT lFoot
        {
          OFFSET -0.73152 -45.1104 -5.12064
          CHANNELS 3 Zrotation Xrotation Yrotation
          End Site
          {
            OFFSET 1.1221 -3.69964 12.103
          }
        }
      }
    }
  }
}
MOTION
Frames:	4
Frame Time:	0.03333
0.5165000036358833 76.19850158691406 5.005000028759241 -0.05379999987781048 1.3363999966531992 3.276900015771389 -4.886139929294586 2.974900044500828 13.008900135755539 0.14998000231571496 -6.782180070877075 3.6347898468375206 -7.270279750227928 11.260499507188797 -7.83097006380558 8.64998996257782 -13.24040025472641 -13.655300438404083 0.0 0.0 0.0 0.0 0.0 0.0 0.0 0.0 0.0 -47.6665985584259 51.45340025424957 121.95699691772461 -28.169599771499634 -31.7263001203537 69.99950230121613 -0.00036713599456561496 -0.7777640037238598 -0.10930800111964345 8.697043085703626e-11 -9.208633855450898e-11 4.96243046654854e-10 1.4836132322670892e-10 -1.5859313862165436e-10 8.543565854779445e-10 8.697043085703626e-11 -9.208633855450898e-11 4.96243046654854e-10 7.7309102565050125 5.474880114197731 0.41731400415301323 8.697043085703626e-11 -9.208633855450898e-11 4.96243046654854e-10 2.905540131032467 0.9651830233633518 0.102901995414868 8.697043085703626e-11 -9.208633855450898e-11 4.96243046654854e-10 10.27859978377819 0.7318009994924068 0.025912300043273717 8.697043085703626e-11 -9.208633855450898e-11 4.96243046654854e-10 2.221670038998127 -0.733487019315362 -0.2089200052432716 0.0 0.0 0.0 -111.83799862861633 63.589001297950745 55.623398423194885 28.122199773788452 -39.713298976421356 -83.40950131416321 -1.6894400118872e-05 0.1887879939749837 -0.02653250063303858 2.5067947717616335e-10 1.5859313862165436e-10 -4.092726157978177e-11 4.3229420043644495e-10 2.7114310796605423e-10 -7.16227077646181e-11 2.5067947717616335e-10 1.5859313862165436e-10 -4.092726157978177e-11 -7.7309102565050125 5.474880114197731 -0.41731400415301323 2.5067947717616335e-10 1.5859313862165436e-10 -4.092726157978177e-11 -2.905540131032467 0.9651830233633518 -0.102901995414868 2.5067947717616335e-10 1.5859313862165436e-10 -4.092726157978177e-11 -10.27859978377819 0.7318009994924068 -0.025912300043273717 2.5067947717616335e-10 1.5859313862165436e-10 -4.092726157978177e-11 -2.221670038998127 -0.733487019315362 0.2089200052432716 0.0 0.0 0.0 4.637020044028759 -32.65590012073517 1.611659936606884 -0.8678749948740005 56.80399954319 1.408070046454668 -1.3047899957746267 -21.73250064253807 -2.224320061504841 0.0 0.0 0.0 -9.240049794316292 -32.10709869861603 -5.307099893689156 0.7747050281614065 55.7800018787384 -1.420419942587614 5.2500999346375465 -21.605400145053864 10.409299805760384
0.552300002425909 76.16000366210938 5.045000027865171 -0.004799999987881165 1.3272000197321177 3.2917001098394394 -4.9657100066542625 2.9391200467944145 13.019599467515945 0.1425110036507249 -6.775139942765236 3.6368001624941826 -7.275880202651024 11.233299896121025 -7.838079929351807 8.664339780807495 -13.131199479103088 -13.67059975862503 0.0 0.0 0.0 0.0 0.0 0.0 0.0 0.0 0.0 -47.94089734554291 51.4396995306015 122.28300333023071 -28.168998956680298 -31.72179937362671 69.99220132827759 -0.003097999870078638 -1.5890799276530743 -0.2233880083076656 2.5579538487363607e-10 -1.1254996934439987e-10 4.860112312599085e-10 4.4508396968012676e-10 -1.944044925039634e-10 8.390088623855263e-10 2.5579538487363607e-10 -1.1254996934439987e-10 4.860112312599085e-10 7.7309102565050125 5.474880114197731 0.41731400415301323 2.5579538487363607e-10 -1.1254996934439987e-10 4.860112312599085e-10 2.905540131032467 0.9651830233633518 0.102901995414868 2.5579538487363607e-10 -1.1254996934439987e-10 4.860112312599085e-10 10.27859978377819 0.7318009994924068 0.025912300043273717 2.5579538487363607e-10 -1.1254996934439987e-10 4.860112312599085e-10 2.221670038998127 -0.733487019315362 -0.2089200052432716 0.0 0.0 0.0 -112.18299508094788 63.47319960594177 55.946497321128845 28.125799298286438 -39.69050019979477 -83.36899995803833 6.712170659284311e-06 -0.0739729986526072 0.010396200232207775 2.353317540837452e-10 1.0487610779819079e-09 1.944044925039634e-10 4.0671466194908135e-10 1.816147232602816e-09 3.4276581573067233e-10 2.353317540837452e-10 1.0487610779819079e-09 1.944044925039634e-10 -7.7309102565050125 5.474880114197731 -0.41731400415301323 2.353317540837452e-10 1.0487610779819079e-09 1.944044925039634e-10 -2.905540131032467 0.9651830233633518 -0.102901995414868 2.353317540837452e-10 1.0487610779819079e-09 1.944044925039634e-10 -10.27859978377819 0.7318009994924068 -0.025912300043273717 2.353317540837452e-10 1.0487610779819079e-09 1.944044925039634e-10 -2.221670038998127 -0.733487019315362 0.2089200052432716 0.0 0.0 0.0 4.551849849522114 -32.699899077415466 1.6395500488579273 -0.8738070353865623 56.922301054000854 1.4149200730025768 -1.3014199677854776 -21.82610034942627 -2.2124900110065937 0.0 0.0 0.0 -9.266010224819183 -32.13520020246506 -5.161389894783497 0.7779299654066563 55.84750235080719 -1.4238099195063114 5.228720046579838 -21.689099818468094 10.33470019698143
0.5865000039339066 76.11920166015625 5.079000029712915 0.03360000089742243 1.2803000025451183 3.303399905562401 -5.0128598883748055 2.9071300104260445 13.069400042295456 0.09894309681840241 -6.786700263619423 3.648199886083603 -7.283800095319748 11.279700100421906 -7.861340045928955 8.728500232100487 -13.065399527549744 -13.71619999408722 0.0 0.0 0.0 0.0 0.0 0.0 0.0 0.0 0.0 -48.04249942302704 51.57399773597717 122.489994764328 -28.16810041666031 -31.716198921203613 69.98429954051971 -0.005856619754922576 -2.1728100813925266 -0.30551400035619736 -1.5347723092418164e-10 -5.115907697472721e-12 -6.650680006714538e-11 -2.6346924641984515e-10 -5.115907697472721e-12 -1.176658770418726e-10 -1.5347723092418164e-10 -5.115907697472721e-12 -6.650680006714538e-11 7.7309102565050125 5.474880114197731 0.41731400415301323 -1.5347723092418164e-10 -5.115907697472721e-12 -6.650680006714538e-11 2.905540131032467 0.9651830233633518 0.102901995414868 -1.5347723092418164e-10 -5.115907697472721e-12 -6.650680006714538e-11 10.27859978377819 0.7318009994924068 0.025912300043273717 -1.5347723092418164e-10 -5.115907697472721e-12 -6.650680006714538e-11 2.221670038998127 -0.733487019315362 -0.2089200052432716 0.0 0.0 0.0 -112.43899583816528 63.40929865837097 56.22280240058899 28.131099343299866 -39.65640127658844 -83.30830156803131 0.00010249399792883196 -0.20581499207764864 0.028925499937031418 -2.3277380023500882e-10 2.6346924641984515e-09 8.287770469905809e-10 -4.04156708100345e-10 4.558273758448195e-09 1.432454155292362e-09 -2.3277380023500882e-10 2.6346924641984515e-09 8.287770469905809e-10 -7.7309102565050125 5.474880114197731 -0.41731400415301323 -2.3277380023500882e-10 2.6346924641984515e-09 8.287770469905809e-10 -2.905540131032467 0.9651830233633518 -0.102901995414868 -2.3277380023500882e-10 2.6346924641984515e-09 8.287770469905809e-10 -10.27859978377819 0.7318009994924068 -0.025912300043273717 -2.3277380023500882e-10 2.6346924641984515e-09 8.287770469905809e-10 -2.221670038998127 -0.733487019315362 0.2089200052432716 0.0 0.0 0.0 4.497859999537468 -32.74680018424988 1.6752899810671806 -0.8797460328787565 57.045902609825134 1.4229499362409115 -1.3286999613046646 -21.904100328683853 -2.2643500193953514 0.0 0.0 0.0 -9.289169758558273 -32.16310054063797 -5.03920990973711 0.7815699744969606 55.925801396369934 -1.4282900467514992 5.232980065047741 -21.76120027899742 10.317800268530846
0.606400003656745 76.07740020751953 5.107000030577183 0.08849999983794987 1.225900026038289 3.31379983574152 -5.041140094399452 2.8689799457788467 13.130200356245041 0.05700389854609966 -6.792059987783432 3.6631401255726814 -7.279519960284233 11.349599808454514 -7.884329929947853 8.753020316362381 -13.04469957947731 -13.76620039343834 0.0 0.0 0.0 0.0 0.0 0.0 0.0 0.0 0.0 -48.090500235557556 51.72360062599182 122.62399792671204 -28.16819965839386 -31.71649932861328 69.98479843139648 -0.008157090051099658 -2.5778499618172646 -0.362539985217154 -5.039169082010631e-10 9.208633855450898e-11 -5.627498467219993e-10 -8.697043085703626e-10 1.6370904631912708e-10 -9.72022462519817e-10 -5.039169082010631e-10 9.208633855450898e-11 -5.627498467219993e-10 7.7309102565050125 5.474880114197731 0.41731400415301323 -5.039169082010631e-10 9.208633855450898e-11 -5.627498467219993e-10 2.905540131032467 0.9651830233633518 0.102901995414868 -5.039169082010631e-10 9.208633855450898e-11 -5.627498467219993e-10 10.27859978377819 0.7318009994924068 0.025912300043273717 -5.039169082010631e-10 9.208633855450898e-11 -5.627498467219993e-10 2.221670038998127 -0.733487019315362 -0.2089200052432716 0.0 0.0 0.0 -112.62500166893005 63.35609972476959 56.44050121307373 28.136799037456512 -39.62000101804733 -83.24360132217407 4.71977989491279e-05 -0.1961719896644354 0.027570300735533237 -6.420464160328265e-10 3.811351234617177e-09 1.3250200936454348e-09 -1.1101519703515805e-09 6.589289114344865e-09 2.291926648467779e-09 -6.420464160328265e-10 3.811351234617177e-09 1.3250200936454348e-09 -7.7309102565050125 5.474880114197731 -0.41731400415301323 -6.420464160328265e-10 3.811351234617177e-09 1.3250200936454348e-09 -2.905540131032467 0.9651830233633518 -0.102901995414868 -6.420464160328265e-10 3.811351234617177e-09 1.3250200936454348e-09 -10.27859978377819 0.7318009994924068 -0.025912300043273717 -6.420464160328265e-10 3.811351234617177e-09 1.3250200936454348e-09 -2.221670038998127 -0.733487019315362 0.2089200052432716 0.0 0.0 0.0 4.447380155324936 -32.80599921941757 1.6984600760042667 -0.8859730325639248 57.173200249671936 1.4310000836849213 -1.3484199810773134 -21.98600023984909 -2.3001999221742153 0.0 0.0 0.0 -9.308609738945961 -32.200699746608734 -4.9282898381352425 0.7854340318590403 56.009400486946106 -1.4332600124180317 5.24432010948658 -21.831699460744858 10.316200330853462
